<?xml version="1.0" encoding="UTF-8"?>
<svg xmlns="http://www.w3.org/2000/svg" width="800" height="160" viewBox="0 0 200 40" fill="none">
  <g clip-path="url(#clip0_330_702)">
    <path d="M119.642 22.4973H194.901V39.9952H119.642V22.4973ZM124.282 36.0288H125.923V32.194H130.626V30.6883H125.923V28.1155H131.224V26.6099H124.282V36.0288ZM133.419 36.0288H140.398V34.5475H135.054V32.0186H139.728V30.5373H135.054V28.0863H140.331V26.605H133.419V36.0239V36.0288ZM142.748 36.0288H146.225C149.158 36.0288 151.179 33.9677 151.179 31.3169V31.2877C151.179 28.6369 149.153 26.605 146.225 26.605H142.748V36.0239V36.0288ZM146.225 28.1155C148.184 28.1155 149.462 29.475 149.462 31.3169V31.3461C149.462 33.188 148.184 34.5231 146.225 34.5231H144.388V28.1155H146.225ZM153.562 36.0288H160.542V34.5475H155.198V32.0186H159.872V30.5373H155.198V28.0863H160.475V26.605H153.562V36.0239V36.0288ZM162.891 36.0288H164.531V32.7446H166.581L168.873 36.0288H170.817L168.299 32.462C169.591 32.0868 170.508 31.1561 170.508 29.6115V29.5822C170.508 28.7587 170.228 28.0619 169.736 27.5503C169.138 26.9558 168.217 26.6099 167.045 26.6099H162.887V36.0288H162.891ZM164.527 31.2779V28.1155H166.909C168.12 28.1155 168.839 28.6662 168.839 29.6748V29.704C168.839 30.6591 168.091 31.2779 166.919 31.2779H164.522H164.527ZM172.124 36.0288H173.803L174.762 33.7533H179.171L180.117 36.0288H181.848L177.743 26.5417H176.224L172.119 36.0288H172.124ZM175.361 32.2866L176.957 28.52L178.568 32.2866H175.356H175.361ZM183.845 36.0288H190.386V34.5231H185.486V26.6099H183.845V36.0288Z" fill="#DC502A"></path>
    <path d="M0 11.3339V11.2901C0 6.77309 3.34764 3.07471 8.10863 3.07471C11.0077 3.07471 12.7587 4.0931 14.2637 5.55004L12.4885 7.61119C11.2296 6.432 9.88375 5.63775 8.08451 5.63775C5.09864 5.63775 2.89904 8.13257 2.89904 11.2414V11.2852C2.89904 14.394 5.07935 16.9132 8.08451 16.9132C10.0188 16.9132 11.2537 16.1384 12.5995 14.8715L14.3746 16.6842C12.7346 18.4091 10.9353 19.4957 7.99768 19.4957C3.41518 19.5006 0 15.8948 0 11.3339Z" fill="white"></path>
    <path d="M62.9487 3.28906H65.5101L72.4273 19.2813H69.509L67.9123 15.4465H60.479L58.8631 19.2813H56.0364L62.9536 3.28906H62.9487ZM66.9042 12.9809L64.1884 6.62686L61.492 12.9809H66.9042Z" fill="white"></path>
    <path d="M86.3542 3.34766H89.1134V16.6891H97.3812V19.2278H86.3542V3.34766Z" fill="white"></path>
    <path d="M111.486 3.34766H123.183V5.89121H114.245V10.223H122.175V12.7617H114.245V19.2278H111.486V3.34766Z" fill="white"></path>
    <path d="M140.364 3.34766H137.6V19.2278H140.364V3.34766Z" fill="white"></path>
    <path d="M155.79 3.34766H162.799C164.777 3.34766 166.325 3.93725 167.338 4.93616C168.168 5.79862 168.641 6.97782 168.641 8.36167V8.40552C168.641 11.0124 167.092 12.5814 164.912 13.2149L169.157 19.2278H165.877L162.013 13.6924H158.554V19.2278H155.79V3.34766ZM162.597 11.2219C164.574 11.2219 165.828 10.1792 165.828 8.56632V8.52246C165.828 6.82189 164.618 5.89121 162.572 5.89121H158.554V11.2219H162.597Z" fill="white"></path>
    <path d="M33.5104 12.4887V6.18346L38.9178 3.03082L44.3252 6.18346V12.4887L38.9178 15.6414L33.5104 12.4887ZM38.9178 0L30.9153 4.66805V13.9993L38.9178 18.6673L46.9203 13.9993V4.66805L38.9178 0Z" fill="white"></path>
    <path d="M26.81 16.3967V10.0914L32.2174 6.93878L37.6247 10.0914V16.3967L32.2174 19.5542L26.81 16.3967ZM24.2148 8.57601V17.9072L32.2174 22.5753L40.2199 17.9072V8.57601L32.2174 3.90796L24.2148 8.57601Z" fill="#DC502A"></path>
    <path d="M183.257 3.34766H194.915V5.84248H186.021V9.97453H193.902V12.4694H186.021V16.733H195.026V19.2278H183.257V3.34766Z" fill="white"></path>
    <path d="M198.393 19.6029C197.496 19.6029 196.792 18.872 196.792 17.9852C196.792 17.0983 197.501 16.3625 198.398 16.3625C199.295 16.3625 200 17.0935 200 17.9803C200 18.8671 199.291 19.6029 198.393 19.6029ZM198.403 16.5233C197.583 16.5233 196.961 17.1812 196.961 17.9852C196.961 18.7892 197.578 19.4421 198.393 19.4421C199.209 19.4421 199.836 18.7843 199.836 17.9803C199.836 17.1763 199.218 16.5282 198.403 16.5282V16.5233ZM198.755 18.1411L199.209 18.7794H198.828L198.418 18.1947H198.065V18.7794H197.747V17.0837H198.495C198.885 17.0837 199.141 17.2835 199.141 17.6246C199.141 17.9023 198.982 18.0729 198.75 18.1411H198.755ZM198.485 17.3761H198.07V17.9121H198.485C198.693 17.9121 198.818 17.8097 198.818 17.6441C198.818 17.4687 198.693 17.3761 198.485 17.3761Z" fill="white"></path>
    <path d="M131.503 27.979H126.129V30.5859H130.895V32.1159H126.129V36.0044H124.47V26.4539H131.508V27.9839L131.503 27.979Z" fill="white"></path>
    <path d="M140.582 27.95H135.232V30.4351H139.974V31.9359H135.232V34.4989H140.649V35.9997H133.573V26.4492H140.582V27.95Z" fill="white"></path>
    <path d="M146.389 35.9997H142.863V26.4492H146.389C149.361 26.4492 151.416 28.5104 151.416 31.2098C151.416 33.9093 149.361 35.9997 146.389 35.9997ZM146.389 27.9792H144.527V34.4746H146.389C148.377 34.4746 149.67 33.1248 149.67 31.2391C149.67 29.3533 148.372 27.9792 146.389 27.9792Z" fill="white"></path>
    <path d="M160.677 27.9498H155.327V30.4348H160.069V31.9356H155.327V34.4987H160.744V35.9995H153.668V26.449H160.677V27.9498Z" fill="white"></path>
    <path d="M169.022 35.9995L166.697 32.6714H164.618V35.9995H162.958V26.449H167.174C169.35 26.449 170.686 27.6087 170.686 29.4798C170.686 31.0634 169.755 32.0185 168.428 32.3839L170.98 35.9995H169.022ZM167.039 27.979H164.622V31.1852H167.054C168.24 31.1852 168.998 30.5567 168.998 29.5772C168.998 28.5247 168.269 27.979 167.039 27.979Z" fill="white"></path>
    <path d="M182.017 35.9996H180.261L179.301 33.6948H174.829L173.855 35.9996H172.152L176.31 26.3809H177.849L182.007 35.9996H182.017ZM177.058 28.3884L175.437 32.2086H178.693L177.058 28.3884Z" fill="white"></path>
    <path d="M183.879 26.449H185.538V34.4694H190.506V35.9995H183.874V26.449H183.879Z" fill="white"></path>
  </g>
  <defs>
    <clipPath id="clip0_330_702">
      <rect width="200" height="40" fill="white"></rect>
    </clipPath>
  </defs>
</svg>
